<svg width="165" height="207" viewBox="0 0 165 207" fill="none" xmlns="http://www.w3.org/2000/svg">
<path d="M34.6262 66.026C27.2332 66.2836 16.0342 66.8503 9.55239 66.2418C3.01911 65.6268 2.26565 65.9359 2.26565 70.1798V78.7159C2.22379 80.1004 3.44736 81.2628 5.00582 81.3208C11.2493 81.5462 26.4282 82.0067 35.6404 81.543C40.8374 81.2789 41.5587 80.9956 40.8214 73.3546C40.0389 65.2404 40.0775 65.8393 34.6262 66.026V66.026ZM38.8797 41.3902C36.6097 40.6045 30.0796 40.3405 28.3859 40.6528C26.6922 40.9651 26.5151 41.9569 26.0514 45.3604C25.7101 46.8705 25.2239 48.4032 24.5284 49.3016C23.0923 51.1627 19.9915 50.8794 18.7615 49.3016C18.0595 48.4032 17.5797 46.8705 17.2384 45.3604C15.3322 33.9811 15.9408 26.4947 17.3157 17.5561C17.6345 16.2391 18.0048 14.964 18.7582 14.0914C20.5872 11.9727 23.0891 12.314 24.5252 14.0914C25.2432 14.9801 25.6489 16.2391 25.9677 17.5561C26.2382 19.3077 26.3734 20.1449 26.5698 21.829C26.5698 21.829 26.6761 22.6887 26.6729 22.6919C26.85 24.4339 27.304 24.5724 29.5129 24.83C32.9164 25.226 38.1842 24.6432 40.1773 24.1505C41.7777 23.7545 41.8775 22.3345 41.256 19.0469C40.5702 15.505 39.7266 12.0757 37.7817 9.26471C34.7099 4.8244 31.2355 1.78798 24.9341 0.38408C21.6401 -0.35007 18.7131 0.29714 18.3461 0.38408C12.0768 1.8717 8.57031 4.82439 5.49847 9.26471C2.37512 13.7791 1.01307 19.7714 0.410941 24.8944C0.204861 26.6396 -0.400489 33.1439 0.410941 38.6983C1.15475 43.8084 2.14972 49.7975 5.27308 54.3118C8.34491 58.7522 11.3169 61.6566 17.6312 63.0283C20.7449 63.7044 23.8039 63.4726 25.6489 63.0283C32.0116 61.4956 34.9353 58.7522 38.0071 54.3118C39.8489 51.6489 40.7022 48.0394 41.1981 45.0255C41.6006 42.6943 40.8632 42.0793 38.8797 41.3902L38.8797 41.3902Z" fill="#DB3EB1"/>
<path d="M92.1798 19.4074C91.8803 13.9496 91.8513 8.46925 90.8757 3.08871C90.5086 1.07624 90.1158 0.00077006 88.0969 0.0200901C84.4197 -0.12159 80.0277 0.493425 77.2488 1.6333C75.0947 2.43185 75.2267 2.83756 75.2525 5.10763C75.3008 9.02631 75.436 13.8659 75.4038 17.7814C75.4521 23.9089 75.5391 29.0512 75.465 33.5881C75.3426 37.0753 75.2621 42.5525 75.1977 47.6174C75.1945 47.9459 74.9176 48.2002 74.5988 48.1745C72.6121 48.0199 70.8444 47.9233 70.4676 47.9072C67.8627 47.8879 66.0949 47.6883 64.2467 47.6239C63.9247 47.611 63.6735 47.347 63.6832 47.0185C63.915 39.2295 63.9955 24.1376 64.0728 21.8739C64.237 17.3885 64.2725 11.3318 64.4978 5.87721C64.588 2.59608 65.2062 0.467681 59.0658 0.425821C51.1125 0.944231 50.0596 1.05694 48.7072 3.9871C47.5029 6.49866 46.6335 18.6733 46.5112 23.7898C46.4468 25.9504 46.3566 31.3213 46.3598 34.3126C46.611 43.6118 46.4274 52.9207 46.9394 62.2135C47.2389 67.6713 47.2679 73.1517 48.2435 78.5322C48.6106 80.5479 49.0002 81.6234 51.0223 81.6008C54.6995 81.7425 59.0915 81.1275 61.8703 79.9876C64.0213 79.1923 63.8925 78.7834 63.8635 76.5133C63.8184 72.8554 63.6993 68.4022 63.7089 64.6413C63.7089 64.3097 63.9665 64.0456 64.2918 64.036C66.2141 63.9619 68.1235 63.8814 69.5821 63.9716C70.7767 64.0424 72.5574 64.0489 74.3573 64.0231C74.6664 64.0199 74.9208 64.2711 74.9144 64.5898C74.8371 68.1447 74.7727 72.0794 74.6213 75.7502C74.5312 79.0313 73.913 81.1597 80.0534 81.2016C88.0067 80.6832 89.0596 80.5705 90.412 77.6403C91.613 75.1255 92.4856 62.9541 92.608 57.8344C92.6724 55.6738 92.7626 50.3029 92.7593 47.3115C92.505 38.0123 92.6917 28.7002 92.1798 19.4074V19.4074Z" fill="#DB3EB1"/>
<path d="M163.979 4.73739C163.634 2.4158 162.952 2.13246 161.499 1.73962C158.605 0.867012 154.873 0.554675 148.594 0.387235C135.788 0.045925 109.169 0.361474 103.321 0.770414C98.0663 1.13749 97.2226 1.48203 98.1049 10.1727C98.9421 18.4319 100.153 19.0372 104.397 18.4447C112.466 17.321 123.887 17.614 129.764 17.8716C133.074 18.0165 135.865 18.3514 135.769 19.6651C135.846 20.4926 135.807 21.7516 135.756 23.7641C135.691 25.9247 135.598 31.2988 135.601 34.2901C135.859 43.5926 135.669 52.9079 136.194 62.2039C136.5 67.6649 136.529 73.1485 137.53 78.5291C137.904 80.5447 138.303 81.6202 140.373 81.6009C144.134 81.7426 148.623 81.1276 151.466 79.9877C153.665 79.1924 153.533 78.7834 153.504 76.5134C153.456 72.5915 153.317 67.7519 153.35 63.8332C153.298 57.7024 153.211 52.5601 153.285 48.02C153.549 40.6077 153.633 24.2181 153.72 21.8514C154 18.3191 153.891 17.6816 156.615 17.3789C158.025 17.1954 158.994 17.0795 160.343 17.0891C162.15 17.0344 163.351 17.1149 163.86 14.7321C164.372 10.646 164.375 8.99417 163.979 4.73739H163.979ZM126.341 27.2674C125.223 25.9826 121.82 22.0897 112.273 22.3699C107.291 22.5856 104.989 24.0668 102.906 26.3723C100.797 28.5361 99.6569 31.6723 99.6022 35.4364C99.5185 39.2456 100.427 43.9242 100.835 44.8806L100.903 45.0415C101.434 46.2941 101.892 47.3792 104.361 47.3825C106.577 47.6014 109.159 47.2762 111.455 46.4873C113.686 45.721 113.432 43.3028 113.297 42.0019C113.052 39.6803 112.907 37.6968 112.981 35.5427C112.968 33.6848 113.545 32.1553 114.459 31.6433C114.733 31.4823 114.965 31.4212 115.155 31.4501C115.364 31.4888 115.576 31.6465 115.789 31.9267C116.629 33.0311 117.731 37.0818 117.521 41.5189L117.476 42.5042C117.367 44.9772 117.264 47.3148 116.742 49.4465C116.694 49.6429 116.62 49.7684 116.52 49.8232C116.282 49.952 115.712 49.8328 115.209 49.7298L114.791 49.6461C111.484 49.0246 105.099 49.6912 102.024 52.1866C99.087 54.8012 97.6509 57.828 97.3772 62.8769C97.1937 69.0656 99.5636 72.5045 101.611 74.4043C104.21 76.816 108.637 77.3441 112.057 76.6937C113.49 76.4232 115.161 76.0207 116.716 75.1127C116.813 75.0579 116.887 75.0161 116.948 74.9839C116.971 75.0869 116.99 75.2286 117.012 75.4025C117.106 76.1302 117.183 76.8643 117.26 77.5953L117.283 77.7981C117.476 79.5981 118.407 80.1809 119.849 80.5415C120.761 80.7701 123.214 81.0664 125.423 81.0664C126.804 81.0664 128.092 80.9505 128.846 80.6349C130.179 80.0746 130.388 78.9187 130.61 77.6919L130.672 77.3538C130.862 75.7116 131.039 72.2823 131.035 71.1425C131.032 69.101 131.032 58.6233 131.373 52.9884C131.631 49.308 131.586 42.8165 131.145 39.6385C130.581 35.6071 129.574 30.9832 126.341 27.2674V27.2674ZM116.649 63.8493C116.346 66.0356 114.91 66.4059 112.353 66.3125C110.463 66.2449 109.558 65.6138 109.227 64.1359C109.14 63.743 109.13 63.3309 109.127 62.8704C109.111 61.0157 110.386 59.8855 112.923 59.5056C113.261 59.454 113.577 59.4283 113.87 59.4283C114.404 59.4283 114.858 59.512 115.229 59.6827C115.985 60.0304 116.478 60.7646 116.655 61.8046C116.794 62.6032 116.697 63.5015 116.649 63.8493V63.8493Z" fill="#DB3EB1"/>
<path d="M59.0882 191.879C58.6894 185.395 55.5856 147.656 53.7173 137.066C52.1828 126.111 50.0544 115.426 47.2064 104.303C45.7629 99.4912 43.9163 98.5982 40.6131 97.7616C38.8922 97.3238 27.4959 96.5132 19.5849 97.7313C14.8035 98.5332 13.5334 98.5332 12.0032 103.774C10.1089 110.268 9.96153 113.48 8.53104 119.275C7.08754 126.424 4.07482 142.744 1.91608 160.963C0.0130899 181.827 -0.099615 197.376 0.043445 201.23C0.147485 204.039 0.849727 204.862 3.63703 205.231C8.02388 205.812 19.0083 206.375 20.0704 206.163C24.2882 205.322 23.6293 204.854 23.7116 200.454C23.781 196.782 23.9717 193.388 24.5786 189.764C24.6956 189.071 25.0641 187.12 26.6246 186.613C29.607 185.902 30.9855 185.754 33.556 185.806C37.4617 185.915 37.5441 186.496 37.7131 190.471C37.8779 194.329 37.9125 198.191 38.0209 202.053C38.268 205.673 39.4644 205.391 42.993 205.968C47.4535 206.696 53.1581 205.864 54.853 205.513C56.7994 205.109 58.2516 204.893 58.6764 202.942C59.409 199.608 59.2963 195.291 59.0882 191.879H59.0882ZM33.4953 168.671C31.7917 168.957 30.1185 169.408 28.4062 169.637C24.8473 170.119 24.1581 169.728 24.1624 166.833C24.3878 161.445 24.7216 158.575 25.3198 153.208C26.2692 144.647 27.2748 138.782 28.4192 129.501C29.4943 121.868 30.721 122.977 31.2889 125.361C32.7194 132.627 32.8018 135.336 33.621 142.016C34.501 149.22 35.0949 156.451 35.8058 163.673C35.8665 164.293 35.9185 164.913 35.9315 165.537C35.9792 167.99 35.4893 168.333 33.4953 168.671V168.671Z" fill="#DB3EB1"/>
<path d="M106.833 117.077C104.154 111.841 100.574 107.233 95.0857 103.826C85.8396 98.5198 79.2029 97.0417 70.2992 97.1024C66.4845 97.1327 65.6046 98.017 65.6522 102.339C65.5829 105.586 65.08 118.859 64.8676 136.48C64.9066 144.981 64.5642 154.066 64.9933 162.632C65.4745 172.273 65.6132 181.935 66.4976 191.554C66.801 194.866 67.3559 198.156 67.7763 201.459C68.1838 204.871 68.8644 205.668 70.5636 206.076C74.8248 207.09 81.2576 206.128 84.162 205.074C86.8236 204.112 87.2744 203.193 86.9276 200.397C86.4985 196.925 86.1907 183.647 86.0216 180.509C85.9479 179.139 86.234 178.181 87.2267 177.193C88.3624 176.066 92.7016 173.083 93.924 172.225C99.1605 168.558 100.786 166.854 104.618 161.787C109.053 155.922 110.405 148.891 111.116 141.851C111.992 133.277 110.834 124.902 106.833 117.077L106.833 117.077ZM92.8707 146.09C92.1034 149.211 90.2134 151.478 88.2541 153.637C87.8032 154.045 86.208 155.9 85.4494 155.627C84.8859 155.64 84.7732 154.899 84.5391 153.16C83.9799 148.188 84.4524 128.786 84.4307 126.696C84.5304 120.719 84.8252 118.538 85.8526 118.243C86.6242 118.022 87.179 118.837 87.5952 119.388C89.4938 121.889 91.0847 124.481 92.0947 127.464C94.3012 133.953 94.4442 139.675 92.8707 146.09V146.09Z" fill="#DB3EB1"/>
<path d="M159.703 117.077C157.024 111.841 153.444 107.233 147.956 103.826C138.709 98.5198 132.073 97.0417 123.169 97.1024C119.354 97.1327 118.474 98.017 118.522 102.339C118.453 105.586 117.95 118.859 117.738 136.48C117.777 144.981 117.434 154.066 117.863 162.632C118.344 172.273 118.483 181.935 119.367 191.554C119.671 194.866 120.226 198.156 120.646 201.459C121.054 204.871 121.734 205.668 123.433 206.076C127.695 207.09 134.128 206.128 137.032 205.074C139.693 204.112 140.144 203.193 139.797 200.397C139.368 196.925 139.061 183.647 138.892 180.509C138.818 179.139 139.104 178.181 140.097 177.193C141.232 176.066 145.571 173.083 146.794 172.225C152.03 168.558 153.656 166.854 157.488 161.787C161.922 155.922 163.275 148.891 163.986 141.851C164.861 133.277 163.704 124.902 159.703 117.077L159.703 117.077ZM145.741 146.09C144.973 149.211 143.083 151.478 141.124 153.637C140.673 154.045 139.078 155.9 138.319 155.627C137.756 155.64 137.643 154.899 137.409 153.16C136.85 148.188 137.322 128.786 137.301 126.696C137.4 120.719 137.695 118.538 138.722 118.243C139.494 118.022 140.049 118.837 140.465 119.388C142.364 121.889 143.955 124.481 144.965 127.464C147.171 133.953 147.314 139.675 145.741 146.09V146.09Z" fill="#DB3EB1"/>
</svg>
